<?xml version="1.0" encoding="UTF-8"?>
<svg width="133px" height="36px" viewBox="0 0 133 36" version="1.1" xmlns="http://www.w3.org/2000/svg" xmlns:xlink="http://www.w3.org/1999/xlink">
    <!-- Generator: Sketch 49.1 (51147) - http://www.bohemiancoding.com/sketch -->
    <title>Logo</title>
    <desc>Created with Sketch.</desc>
    <defs>
        <path d="M13.2980973,20.0725826 C11.6689124,20.7679749 10.2306554,21.1156711 8.98332638,21.1156711 L0,21.1156711 L0,0 L8.50035185,0 C10.7542443,0 12.5144006,0.476132921 13.7808734,1.42841305 C15.0473463,2.38069317 15.6805733,3.87119623 15.6805733,5.89996693 C15.6805733,7.22487841 14.8970891,8.47731501 13.3300972,9.65731429 C15.5839897,10.7959101 16.710919,12.545181 16.710919,14.9051796 C16.710919,14.9051796 16.710919,14.9051796 16.710919,14.9051796 L16.710919,14.9051796 C16.710919,17.1557143 15.3679686,19.1891011 13.2981013,20.0725919 Z M10.4161508,3.94366211 C9.84731132,3.55032901 9.0047975,3.35366541 7.8885841,3.35366541 L4.15358102,3.35366541 L4.15358102,8.60153074 L7.24461805,8.60153074 C8.46815966,8.60153074 9.44483174,8.37899035 10.1746636,7.9339029 C10.9044954,7.48881545 11.2694059,6.831545 11.2694059,5.96207185 C11.2694059,5.00979172 10.9849904,4.3369952 10.4161508,3.94366211 Z M11.4464965,12.6694027 C10.8347257,12.1311574 10.0029446,11.8620388 8.95112808,11.8620388 L4.15358102,11.8620388 L4.15358102,17.7930582 L8.66134336,17.7930582 C9.7990224,17.7930582 10.7005659,17.544641 11.3660008,17.0477992 C12.0314357,16.5509574 12.3641481,15.8471087 12.3641481,14.9362321 C12.3641481,13.9632502 12.0582673,13.207648 11.4464965,12.6694027 Z M44.3566588,17.7309532 C43.6697582,18.9316543 42.6984525,19.8580433 41.4427124,20.5101482 C40.1869724,21.1622531 38.7219642,21.4883006 37.0476441,21.4883006 C35.373324,21.4883006 33.9083159,21.1674284 32.6525759,20.5256744 C31.3968358,19.8839204 30.42553,18.9678821 29.7386295,17.7775319 C29.0517289,16.5871818 28.7082838,15.1950105 28.7082838,13.6009764 C28.7082838,12.0069423 29.0517289,10.6095957 29.7386295,9.40889463 C30.42553,8.2081936 31.3968358,7.28180455 32.6525759,6.62969968 C33.9083159,5.97759481 35.373324,5.65154727 37.0476441,5.65154727 C38.7219642,5.65154727 40.1869724,5.97241946 41.4427124,6.61417345 C42.6984525,7.25592745 43.6697582,8.17196579 44.3566588,9.36231595 C45.0435594,10.5526661 45.3870045,11.9448374 45.3870045,13.5388715 C45.3870045,15.1329056 45.0435594,16.5302522 44.3566588,17.7309532 Z M39.9293922,16.7683271 C40.6914225,15.9195556 41.072432,14.8430812 41.072432,13.5388715 C41.072432,12.2346617 40.6967888,11.168538 39.9454914,10.3404684 C39.1941939,9.51239868 38.2282545,9.09837006 37.0476441,9.09837006 C35.8884995,9.09837006 34.9279264,9.5227494 34.1658961,10.3715208 C33.4038658,11.2202922 33.0228563,12.2967667 33.0228563,13.6009764 C33.0228563,14.9051861 33.3984994,15.9713098 34.1497969,16.7993795 C34.9010944,17.6274492 35.8670338,18.0414778 37.0476441,18.0414778 C38.2067888,18.0414778 39.1673619,17.6170985 39.9293922,16.7683271 Z M62.7579887,21.1156711 L59.2483737,21.1156711 L56.3183282,11.8930912 L53.5170759,21.1156711 L49.9752626,21.1156711 L45.3065088,6.05522922 L49.4278915,6.05522922 L51.8427642,14.8120222 L54.0966453,6.05522922 L58.7010026,6.05522922 L61.1158753,14.8120222 L63.3375581,6.05522922 L67.7487256,6.05522922 L62.7579887,21.1156711 Z M70.3652424,9.37784217 L69.0228196,6.05522922 L81.2059159,6.05522922 L81.431304,8.35311108 L73.5749182,17.8551631 L81.3482118,17.8551631 L82.6655425,21.1156711 L82.1887708,21.1156711 L69.1353648,21.1156711 L68.4244511,19.3560979 L68.3265949,18.9730516 L76.0863858,9.37784217 L70.3652424,9.37784217 Z M68.9479825,9.37784217 L68.873966,9.37784217 L68.8638799,9.169681 L68.9479825,9.37784217 Z M97.070112,13.5388715 L97.070112,14.7809698 L86.5412671,14.7809698 C86.7559235,15.8367586 87.2227942,16.6441144 87.9418932,17.2030615 C88.6609922,17.7620085 89.7610899,18.0414778 91.2422192,18.0414778 C92.1008449,18.0414778 92.8735964,17.92762 93.560497,17.6999008 C94.2473975,17.4721816 94.9879511,17.1409587 95.7821799,16.7062222 L97.0057154,19.6251532 C96.2114866,20.2255037 95.3528738,20.6861105 94.4298512,21.0069875 C93.5068285,21.3278645 92.4120972,21.4883006 91.1456243,21.4883006 C88.1833657,21.4883006 85.9348734,20.7896273 84.4000799,19.3922597 C82.8652865,17.9948922 82.0979013,16.0644837 82.0979013,13.6009764 C82.0979013,12.0069423 82.4145148,10.6095957 83.0477512,9.40889463 C83.6809877,8.2081936 84.5878975,7.28180455 85.7685078,6.62969968 C86.9491181,5.97759481 88.3443639,5.65154727 89.9542871,5.65154727 C91.521279,5.65154727 92.8413962,6.0034716 93.9146783,6.70733083 C94.9879604,7.41119005 95.7821773,8.35828053 96.2973527,9.54863069 C96.8125281,10.7389808 97.070112,12.0690478 97.070112,13.5388715 Z M87.7004059,9.85915527 C87.1208336,10.3663479 86.7451905,11.1064241 86.5734654,12.079406 L93.1097208,12.079406 C92.8950643,11.0857224 92.5140549,10.3404708 91.966681,9.84362904 C91.4193071,9.34678723 90.7163179,9.09837006 89.8576922,9.09837006 C88.9990665,9.09837006 88.2799783,9.35196259 87.7004059,9.85915527 Z M98.9310453,6.0961454 L101.53109,6.0961454 L102.524195,8.55416763 C103.271288,7.91889938 104.144987,7.34469603 105.145318,6.83154066 C105.907462,6.44057162 106.602224,6.19728009 107.229615,6.10166272 L108.516873,9.28773777 C107.833914,9.31750206 107.005221,9.56490202 106.030771,10.0299438 C104.989687,10.5267856 104.018382,11.1581792 103.116825,11.9241437 L103.116825,21.1156711 L98.9310453,21.1156711 L98.9310453,6.0961454 Z M28.523443,9.28773777 C27.8404844,9.31750206 27.011791,9.56490202 26.0373413,10.0299438 C24.9962576,10.5267856 24.0249519,11.1581792 23.1233949,11.9241437 L23.1233949,21.1156711 L18.9376156,21.1156711 L18.9376156,6.0961454 L21.5376599,6.0961454 L22.5307653,8.55416763 C23.277858,7.91889938 24.1515569,7.34469603 25.1518879,6.83154066 C25.9140323,6.44057162 26.6087941,6.19728009 27.2361851,6.10166272 L28.523443,9.28773777 Z M110.170266,24.6205747 C111.193582,24.1891396 112.037125,23.776452 112.700919,23.3825005 C113.398552,22.9684657 113.865423,22.4509299 114.101545,21.8298776 L114.842106,20.0598876 L114.150266,18.5040741 L109.137137,6.0961454 L113.809653,6.0961454 L117.192582,15.1846517 L120.590306,6.0961454 L125,6.0961454 L118.029738,23.1030284 C117.557494,24.2830277 116.709614,25.3129239 115.486072,26.1927479 C114.274445,27.0640045 112.957589,27.6662702 111.535466,27.9995625 L110.170266,24.6205752 Z" id="path-1"></path>
    </defs>
    <g id="🦄-Symbols" stroke="none" stroke-width="1" fill="none" fill-rule="evenodd">
        <g id="header" transform="translate(-54.000000, -23.000000)">
            <g id="Logo" transform="translate(58.000000, 25.000000)">
                <g>
                    <mask id="mask-2" fill="white">
                        <use xlink:href="#path-1"></use>
                    </mask>
                    <g id="Browzery"></g>
                    <g id="Mixin/Fill/Greyscale/White" mask="url(#mask-2)" fill="#FFFFFF">
                        <g transform="translate(-2.135348, -1.152941)" id="Box">
                            <rect x="0" y="0" width="130" height="32"></rect>
                        </g>
                    </g>
                </g>
            </g>
        </g>
    </g>
</svg>